<?xml version="1.0" encoding="UTF-8" standalone="no"?>
<!-- Created with Inkscape (http://www.inkscape.org/) -->

<svg
   xmlns:dc="http://purl.org/dc/elements/1.1/"
   xmlns:cc="http://creativecommons.org/ns#"
   xmlns:rdf="http://www.w3.org/1999/02/22-rdf-syntax-ns#"
   xmlns:svg="http://www.w3.org/2000/svg"
   xmlns="http://www.w3.org/2000/svg"
   xmlns:sodipodi="http://sodipodi.sourceforge.net/DTD/sodipodi-0.dtd"
   xmlns:inkscape="http://www.inkscape.org/namespaces/inkscape"
   id="svg3058"
   version="1.1"
   inkscape:version="0.48.4 r9939"
   width="315"
   height="315"
   sodipodi:docname="foot_sensors.svg"
   inkscape:export-filename="C:\Source\bitbucket\heapsylon\main\Source\Android\Sensoria\SensoriaWorkbench\res\drawable\foot_sensors.png"
   inkscape:export-xdpi="171.42999"
   inkscape:export-ydpi="171.42999">
  <metadata
     id="metadata3134">
    <rdf:RDF>
      <cc:Work
         rdf:about="">
        <dc:format>image/svg+xml</dc:format>
        <dc:type
           rdf:resource="http://purl.org/dc/dcmitype/StillImage" />
        <dc:title></dc:title>
      </cc:Work>
    </rdf:RDF>
  </metadata>
  <defs
     id="defs3132" />
  <sodipodi:namedview
     pagecolor="#ffffff"
     bordercolor="#666666"
     borderopacity="1"
     objecttolerance="10"
     gridtolerance="10"
     guidetolerance="10"
     inkscape:pageopacity="0"
     inkscape:pageshadow="2"
     inkscape:window-width="1920"
     inkscape:window-height="1138"
     id="namedview3130"
     showgrid="false"
     inkscape:zoom="1.6054421"
     inkscape:cx="271.82095"
     inkscape:cy="204.56043"
     inkscape:window-x="1912"
     inkscape:window-y="551"
     inkscape:window-maximized="1"
     inkscape:current-layer="svg3058" />
  <path
     style="fill:#62bad8"
     d="m 41.952018,308.50925 c -16.741651,-3.54633 -24.912215,-14.06071 -24.912215,-32.05857 0,-7.45694 0.423073,-10.13764 3.263374,-20.67755 4.568335,-16.95238 6.015598,-27.81281 6.051063,-45.4079 0.03012,-14.94236 -0.651469,-20.26627 -5.304823,-41.4362 -6.753328,-30.72355 -6.907143,-33.94337 -2.657709,-55.63337 2.051425,-10.4709 2.975184,-16.495582 2.977382,-19.418258 0.0067,-8.936472 2.896572,-21.407844 6.329356,-27.314847 3.343125,-5.752712 8.111719,-9.279032 12.547915,-9.279032 1.867886,0 2.604742,0.310706 3.807493,1.605509 3.415413,3.676796 3.546493,10.300925 0.360404,18.213177 -1.077242,2.675195 -1.958621,5.27968 -1.958621,5.787746 0,1.765133 2.711353,1.841287 6.016549,0.168987 1.75677,-0.888856 3.176412,-4.281894 3.176412,-7.591809 0,-3.19161 -1.26094,-9.263264 -3.299224,-15.886398 -3.851731,-12.515663 -1.062415,-21.569168 8.022421,-26.038984 2.219907,-1.092217 3.271099,-1.314478 4.827832,-1.02079 5.790384,1.0924 8.57673,10.72028 6.181082,21.358009 -0.622341,2.76345 -1.131528,6.079315 -1.131528,7.368586 0,3.782763 1.924853,4.739215 4.701525,2.336174 1.475042,-1.27656 1.516558,-1.461867 1.492306,-6.661636 -0.01834,-3.93061 -0.497496,-7.553082 -1.807452,-13.66418 -1.488176,-6.942528 -1.751934,-9.194243 -1.597344,-13.636628 0.161563,-4.642903 0.393866,-5.731542 1.822877,-8.542398 1.320748,-2.597903 2.205746,-3.563451 4.572562,-4.988754 7.629843,-4.594724 13.277522,-0.0015 15.182811,12.347104 0.480161,3.112214 0.367824,4.545901 -0.847222,10.812517 -0.805449,4.154091 -1.332284,8.539271 -1.239605,10.317981 0.153315,2.942277 0.235557,3.102001 1.683235,3.268889 0.837117,0.0965 2.135002,-0.228423 2.884165,-0.722053 3.46757,-2.28483 3.732114,-7.950216 0.960207,-20.563158 -2.239462,-10.190139 -2.829439,-16.151995 -1.88359,-19.034086 1.630856,-4.9693539 10.006524,-8.5786706 15.994804,-6.8926177 7.95733,2.2404591 9.48206,14.3802347 4.06353,32.3536567 -2.90518,9.636576 -2.75258,13.590365 0.57808,14.977748 2.15291,0.89678 5.38918,0.297512 6.62774,-1.227284 0.86721,-1.067645 0.96724,-1.908821 0.72941,-6.134368 -0.1516,-2.693381 -0.68819,-7.955971 -1.19241,-11.694646 -1.6334,-12.111142 -0.39042,-19.608889 3.97922,-24.0031495 3.75106,-3.7721663 10.04668,-5.331756 14.2876,-3.5393919 5.58104,2.3587549 12.13964,15.0852474 12.69723,24.6380694 0.32555,5.577863 -0.76401,10.751059 -4.04776,19.218682 -3.72066,9.59422 -5.55746,15.26031 -5.55746,17.143402 0,0.942024 0.73151,4.138567 1.62559,7.103432 2.42336,8.036128 3.06367,14.127542 2.25438,21.446572 -1.41181,12.768247 -4.07507,15.967257 -21.72513,26.095497 -10.81407,6.2055 -16.78874,10.38962 -22.1218,15.49215 -10.09234,9.65605 -16.256331,20.85766 -19.831402,36.03892 -2.631749,11.17551 -3.628335,18.90806 -3.660538,28.40222 -0.0498,14.68752 1.447109,20.37313 10.165376,38.61031 8.360816,17.48943 10.077592,23.19652 10.077592,33.50092 0,17.19127 -9.352476,28.29912 -27.937019,33.18054 -4.596938,1.20743 -6.758327,1.43633 -15.098661,1.59902 -5.353548,0.10442 -10.812052,-0.0385 -12.13001,-0.31776 z"
     id="base"
     inkscape:label=""
     inkscape:connector-curvature="0" />
  <path
     style="fill:#6cc7da"
     d="m 43.213679,301.7703 c -7.240805,-1.667 -13.53667,-6.4783 -16.155061,-12.3457 -1.971435,-4.41768 -3.145921,-11.19383 -2.769362,-15.97775 0.424391,-5.39157 5.362406,-29.89374 7.634205,-37.88052 2.745348,-9.6516 6.9513,-18.0454 11.21915,-22.38999 6.020372,-6.12864 11.483734,-7.63752 16.085384,-4.44253 5.10811,3.54664 9.849585,11.98275 16.81041,29.90939 2.322735,5.98188 4.826087,12.34442 5.562996,14.13899 3.797871,9.24874 2.950047,27.72851 -1.663198,36.2523 -1.872227,3.45925 -6.333309,7.57674 -10.204231,9.41829 -7.125868,3.39005 -19.488106,4.9365 -26.520293,3.31752 z"
     id="left_heel_layer1"
     inkscape:label=""
     inkscape:connector-curvature="0" />
  <path
     style="fill:#6cc7da"
     d="m 82.91928,129.39001 c -1.389836,-0.40353 -4.925391,-1.86115 -7.85679,-3.23916 -5.833995,-2.74245 -9.737199,-3.72442 -12.947381,-3.25729 -1.146581,0.16685 -4.643115,1.11726 -7.77008,2.11201 -7.257315,2.30873 -12.086771,3.14607 -16.644958,2.88597 -4.795378,-0.27366 -7.485797,-1.70295 -9.574639,-5.08656 -1.545865,-2.50408 -1.620242,-2.89882 -1.578882,-8.37978 0.0797,-10.56032 2.903642,-14.782211 14.145662,-21.148185 8.150283,-4.615232 11.672556,-7.3001 19.338205,-14.740633 16.33684,-15.857094 23.682319,-20.67201 34.086376,-22.34342 4.262606,-0.684793 8.457917,0.06321 13.519357,2.410312 2.09219,0.970213 6.83738,2.573791 10.54488,3.563504 3.70748,0.989721 7.86947,2.366148 9.24885,3.058733 3.48135,1.747978 6.11449,5.075565 8.08743,10.220397 5.55024,14.473246 3.91352,25.688762 -5.01941,34.395392 -3.30791,3.22412 -6.53562,5.12255 -14.49963,8.52817 -3.12348,1.33568 -8.27275,3.80902 -11.44283,5.49629 -10.77319,5.73404 -16.16886,7.11169 -21.63616,5.52425 z"
     id="left_mtb_layer1"
     inkscape:label=""
     inkscape:connector-curvature="0" />
  <path
     style="fill:#6cc7da"
     d="m 32.770972,75.688222 c -1.9698,-0.737968 -2.716693,-2.092956 -2.735673,-4.96294 -0.02122,-3.208627 1.130641,-6.094242 3.35541,-8.40589 2.073404,-2.154368 4.434396,-2.686562 7.047497,-1.588591 1.526851,0.641547 2.065853,1.262155 2.517833,2.899016 0.766225,2.774914 0.728893,4.21748 -0.163419,6.314689 -1.604914,3.772051 -7.012264,6.871163 -10.021648,5.743716 z"
     id="left_toe_pinkie_layer1"
     inkscape:label=""
     inkscape:connector-curvature="0" />
  <path
     style="fill:#6cc7da"
     d="m 52.459742,53.943515 c -1.869254,-1.040222 -2.433431,-2.219419 -2.433431,-5.08617 0,-3.498507 2.038738,-7.801365 4.768486,-10.064121 2.563879,-2.125268 5.285254,-2.204723 7.627565,-0.222707 1.52838,1.293294 1.66377,1.682199 1.66377,4.779035 0,4.689128 -1.6042,7.785704 -4.866863,9.394484 -3.144109,1.550334 -5.407362,1.951943 -6.759527,1.199479 z"
     id="left_toe_ring_layer1"
     inkscape:label=""
     inkscape:connector-curvature="0" />
  <path
     style="fill:#6cc7da"
     d="m 128.98392,43.589828 c -3.30699,-1.718118 -5.19883,-4.964389 -6.29455,-10.801023 -2.10777,-11.227595 0.96956,-19.799469 7.79215,-21.704956 2.75166,-0.768517 4.13847,-0.71092 6.46993,0.26871 2.70073,1.134787 3.80425,2.231088 5.36869,5.333526 3.29749,6.539263 4.51725,17.272439 2.43023,21.384679 -1.34264,2.645509 -2.47934,3.666598 -5.65374,5.078692 -4.03587,1.795307 -7.2365,1.934681 -10.11271,0.440372 z"
     id="left_toe_thumb_layer1"
     inkscape:label=""
     inkscape:connector-curvature="0" />
  <path
     style="fill:#6cc7da"
     d="m 75.444404,38.336203 c -2.988128,-3.004945 -3.75787,-10.721208 -1.517268,-15.20978 0.684542,-1.371347 1.889063,-2.963516 2.676708,-3.538151 2.000217,-1.459292 5.609076,-1.349456 7.27173,0.221312 4.320408,4.08167 3.625863,15.12283 -1.190974,18.933093 -2.165144,1.712694 -5.308377,1.536227 -7.240196,-0.406474 z"
     id="left_toe_middle_layer1"
     inkscape:label=""
     inkscape:connector-curvature="0" />
  <path
     style="fill:#6cc7da"
     d="m 99.973797,31.800862 c -2.813848,-1.779078 -4.76226,-6.513305 -4.955154,-12.040031 -0.134874,-3.86415 0.01607,-4.907421 0.920515,-6.360186 1.552697,-2.494167 3.362149,-3.488147 6.944512,-3.8148214 2.8736,-0.2620362 3.30319,-0.1537479 4.96346,1.2511524 5.22378,4.420265 5.81855,14.392057 1.15808,19.416448 -1.7004,1.83318 -2.39807,2.190012 -4.66766,2.387326 -2.01205,0.174933 -3.08543,-0.03164 -4.363753,-0.839888 z"
     id="left_toe_index_layer1"
     inkscape:label=""
     inkscape:connector-curvature="0" />
  <path
     style="fill:#76dad9"
     d="m 42.92959,294.43431 c -3.959438,-1.27368 -6.459743,-3.2416 -8.180025,-6.43825 -3.498962,-6.50184 -4.134247,-13.86231 -2.066488,-23.94262 3.774324,-18.39981 10.372783,-29.33721 19.129459,-31.70841 6.116968,-1.6564 10.062791,2.68233 16.608101,18.26193 1.256561,2.99093 2.981678,6.83071 3.833596,8.53284 2.707649,5.40984 3.924412,15.92538 2.580521,22.30144 -0.848454,4.0255 -2.230229,6.52527 -4.856557,8.78596 -5.204899,4.48029 -19.356788,6.68145 -27.048607,4.20711 z"
     id="left_heel_layer2"
     inkscape:label=""
     inkscape:connector-curvature="0" />
  <path
     style="fill:#76dad9"
     d="m 36.236869,120.72381 c -3.442874,-1.62095 -5.137243,-4.64108 -5.137243,-9.15689 0,-4.96281 1.079943,-6.12751 13.326683,-14.372664 13.833845,-9.313677 16.871839,-10.33836 22.634021,-7.634233 5.096963,2.391952 9.447653,8.910694 9.458061,14.171227 0.01036,5.22877 -3.333114,8.69452 -12.327411,12.77829 -7.519602,3.4142 -24.285062,5.94171 -27.954111,4.21427 z"
     id="left_mtb_layer2_left"
     inkscape:label=""
     inkscape:connector-curvature="0" />
  <path
     style="fill:#76dad9"
     d="m 104.53049,114.38957 c -3.66455,-1.11087 -6.376316,-4.3514 -6.376316,-7.6196 0,-3.73695 -1.982341,-5.84467 -9.184443,-9.76534 -2.820794,-1.535579 -5.703756,-3.331384 -6.406584,-3.990667 -3.612267,-3.388453 -5.098739,-10.951545 -3.01878,-15.359409 1.19478,-2.531986 5.665654,-6.503022 9.530452,-8.464949 7.466667,-3.790387 14.379411,-4.054346 23.679931,-0.904211 3.12291,1.057737 7.38141,2.347107 9.46335,2.865256 5.79223,1.441579 7.60509,2.871923 9.87843,7.794052 4.49882,9.740666 1.84296,20.26401 -6.43884,25.512778 -1.77088,1.12233 -5.56513,3.574 -8.43169,5.44817 -2.86655,1.87416 -6.42783,3.77069 -7.91393,4.2145 -3.0004,0.89604 -2.75931,0.88246 -4.78158,0.26942 z"
     id="left_mtb_layer2_right"
     inkscape:label=""
     inkscape:connector-curvature="0" />
  <path
     style="fill:#76dad9"
     d="m 128.64271,30.142331 c -1.97776,-1.212788 -2.90965,-3.524297 -2.90965,-7.217275 0,-5.706801 2.92342,-8.855471 7.82591,-8.428892 2.29534,0.199728 2.94433,0.53136 4.43617,2.266878 2.41912,2.814274 3.35034,7.012629 2.12313,9.572046 -2.04366,4.262165 -7.68275,6.133043 -11.47556,3.807243 z"
     id="left_toe_thumb_layer2"
     inkscape:label=""
     inkscape:connector-curvature="0" />
  <path
     style="fill:#91ffe0"
     d="m 48.404024,288.34807 c -4.865938,-0.95607 -8.52123,-4.86172 -9.699126,-10.36342 -0.66852,-3.12252 0.111819,-13.05339 1.361312,-17.32455 2.324982,-7.94752 12.193206,-11.75241 19.103338,-7.36567 2.585405,1.64129 6.629995,6.88284 8.583696,11.12397 1.074334,2.33218 1.359908,3.84067 1.38985,7.34141 0.08362,9.779 -4.398672,15.29968 -13.495611,16.62203 -4.206938,0.61152 -3.953207,0.61271 -7.243459,-0.0338 z"
     id="left_heel_layer3"
     inkscape:label=""
     inkscape:connector-curvature="0" />
  <path
     style="fill:#91ffe0"
     d="m 36.753051,114.67989 c -0.985604,-0.99115 -1.327325,-1.91964 -1.327325,-3.60649 0,-2.90222 1.569691,-4.43132 9.252889,-9.01355 8.311436,-4.956918 10.909973,-5.333946 15.426216,-2.238246 2.467404,1.691306 3.383451,3.744666 2.887456,6.472326 -0.805584,4.43024 -6.014492,7.72426 -14.159434,8.95421 -7.720748,1.16589 -10.484659,1.03588 -12.079802,-0.56825 z"
     id="left_mtb_layer3_left"
     inkscape:label=""
     inkscape:connector-curvature="0" />
  <path
     style="fill:#91ffe0"
     d="m 106.60972,100.44203 c -1.239,-1.245976 -1.42564,-1.882753 -1.42564,-4.863937 0,-4.476432 -1.09405,-5.784771 -6.218773,-7.436804 L 95.17997,86.921016 95.033188,84.201983 c -0.20862,-3.864479 1.026476,-5.579081 5.888442,-8.174506 5.19951,-2.775611 7.93647,-2.787012 17.10353,-0.07126 8.39778,2.487896 9.75035,3.202148 10.79156,5.698759 1.94385,4.660923 1.37674,7.61005 -2.19787,11.429736 -1.84687,1.973476 -15.33082,8.790958 -17.3872,8.790958 -0.65795,0 -1.83782,-0.64515 -2.62193,-1.43367 z"
     id="left_mtb_layer3_right"
     inkscape:label=""
     inkscape:connector-curvature="0" />
  <path
     style="fill:#91ffe0"
     d="m 34.453888,71.283519 c -2.754389,-3.337526 0.777705,-9.272748 4.502593,-7.566016 2.594947,1.188989 2.781481,4.471761 0.390711,6.87599 -1.470118,1.478395 -3.953652,1.828606 -4.893304,0.690026 z"
     id="left_toe_pinkie_layer3"
     inkscape:label=""
     inkscape:connector-curvature="0" />
  <path
     style="fill:#91ffe0"
     d="m 54.706604,48.131936 c -1.438168,-1.598108 -1.144994,-4.543012 0.62173,-6.245178 1.822765,-1.756153 2.747165,-1.822883 4.629155,-0.334175 1.971096,1.559199 1.90996,3.906797 -0.155852,5.984237 -1.805691,1.815865 -3.78808,2.047413 -5.095033,0.595116 z"
     id="left_toe_ring_layer3"
     inkscape:label=""
     inkscape:connector-curvature="0" />
  <path
     style="fill:#91ffe0"
     d="M 77.743358,31.062204 C 75.284935,29.86966 75.1785,23.785908 77.593305,22.486262 c 1.574273,-0.847267 3.535583,-0.65468 4.52456,0.44428 1.422509,1.580706 1.186952,5.599347 -0.431128,7.355116 -1.43454,1.556609 -2.075211,1.682773 -3.943379,0.776546 z"
     id="left_toe_middle_layer3"
     inkscape:label=""
     inkscape:connector-curvature="0" />
  <path
     style="fill:#91ffe0"
     d="m 129.76419,24.951719 c -0.73003,-0.734144 -1.32733,-1.96883 -1.32733,-2.743759 0,-1.913808 2.2513,-4.078551 4.24162,-4.078551 3.86599,0 5.49796,4.357773 2.57789,6.883652 -1.89467,1.6389 -3.82287,1.617363 -5.49218,-0.06137 z"
     id="left_toe_thumb_layer3"
     inkscape:label=""
     inkscape:connector-curvature="0" />
  <path
     style="fill:#91ffe0"
     d="m 100.72278,24.06772 c -2.171905,-1.272139 -3.377609,-6.664893 -2.048512,-9.162323 0.708729,-1.331726 3.489242,-2.411914 5.137582,-1.995877 3.09006,0.779918 4.08916,7.091051 1.59454,10.072427 -1.43545,1.715551 -2.99224,2.076452 -4.68361,1.085773 z"
     id="left_toe_index_layer3"
     inkscape:label=""
     inkscape:connector-curvature="0" />
  <path
     inkscape:connector-curvature="0"
     style="fill:#62bad8"
     d="m 270.51627,308.50369 c 16.74166,-3.54634 24.91221,-14.06071 24.91221,-32.05857 0,-7.45694 -0.42306,-10.13764 -3.26336,-20.67755 -4.56834,-16.95239 -6.01561,-27.81283 -6.05108,-45.4079 -0.0302,-14.94237 0.65148,-20.26628 5.30483,-41.43622 6.75334,-30.72354 6.90715,-33.94335 2.65771,-55.63335 -2.05142,-10.47091 -2.97518,-16.495586 -2.97738,-19.418261 -0.006,-8.936471 -2.89658,-21.407852 -6.32936,-27.314846 -3.34312,-5.752712 -8.11172,-9.279033 -12.54791,-9.279033 -1.86789,0 -2.60474,0.310707 -3.8075,1.605509 -3.41541,3.676796 -3.54649,10.300926 -0.3604,18.213177 1.07724,2.675195 1.95863,5.27968 1.95863,5.787747 0,1.765133 -2.71136,1.841286 -6.01656,0.168987 -1.75677,-0.888857 -3.17641,-4.281895 -3.17641,-7.59181 0,-3.19161 1.26094,-9.263263 3.29923,-15.886397 3.85172,-12.515663 1.06241,-21.569168 -8.02243,-26.038985 -2.2199,-1.092216 -3.27109,-1.314478 -4.82782,-1.02079 -5.7904,1.0924 -8.57673,10.72028 -6.18109,21.358009 0.62234,2.76345 1.13153,6.079315 1.13153,7.368586 0,3.782763 -1.92486,4.739215 -4.70152,2.336175 -1.47505,-1.276559 -1.51656,-1.461868 -1.49231,-6.661636 0.0183,-3.930611 0.4975,-7.553083 1.80745,-13.664181 1.48817,-6.942528 1.75193,-9.194243 1.59734,-13.636628 -0.16156,-4.642902 -0.39387,-5.731533 -1.82287,-8.54239 -1.32075,-2.597911 -2.20575,-3.563458 -4.57257,-4.988762 -7.62984,-4.594723 -13.27752,-0.0015 -15.1828,12.347105 -0.48018,3.112214 -0.36784,4.5459 0.84721,10.812516 0.80545,4.154091 1.33229,8.539272 1.2396,10.317981 -0.15331,2.942277 -0.23554,3.102001 -1.68323,3.26889 -0.83712,0.0965 -2.13501,-0.228423 -2.88417,-0.722054 -3.46756,-2.28483 -3.7321,-7.950216 -0.96019,-20.563158 2.23945,-10.190139 2.82943,-16.151995 1.88358,-19.034079 -1.63084,-4.9693608 -10.00652,-8.5786765 -15.9948,-6.8926246 -7.95734,2.2404592 -9.48205,14.3802356 -4.06353,32.3536576 2.90518,9.636583 2.75257,13.590364 -0.57808,14.977748 -2.15291,0.896779 -5.38917,0.297512 -6.62773,-1.227285 -0.86723,-1.067644 -0.96725,-1.908812 -0.72942,-6.134368 0.1516,-2.693381 0.68818,-7.955971 1.1924,-11.694646 1.6334,-12.111142 0.39044,-19.608889 -3.97922,-24.0031412 -3.75105,-3.7721735 -10.04667,-5.3317632 -14.28759,-3.5393991 -5.58104,2.358754 -12.13964,15.0852553 -12.69722,24.6380683 -0.32556,5.577863 0.764,10.751059 4.04775,19.218682 3.72065,9.59422 5.55745,15.260311 5.55745,17.143394 0,0.942032 -0.73151,4.138576 -1.62559,7.10344 -2.42335,8.036128 -3.06366,14.127543 -2.25437,21.446571 1.4118,12.768251 4.07507,15.967261 21.72513,26.095491 10.81406,6.2055 16.78874,10.38963 22.1218,15.49215 10.09234,9.65605 16.25633,20.85767 19.8314,36.03893 2.63176,11.1755 3.62834,18.90806 3.66053,28.40221 0.0498,14.68753 -1.4471,20.37313 -10.16536,38.61031 -8.36082,17.48944 -10.07759,23.19653 -10.07759,33.50092 0,17.19128 9.35247,28.29913 27.93701,33.18054 4.59694,1.20744 6.75833,1.43633 15.09866,1.59902 5.35355,0.10442 10.81205,-0.0385 12.13001,-0.31775 z"
     id="right_base"
     inkscape:label="" />
  <path
     inkscape:connector-curvature="0"
     style="fill:#6cc7da"
     d="m 269.25461,301.76474 c 7.24081,-1.667 13.53666,-6.4783 16.15507,-12.3457 1.97143,-4.41768 3.14591,-11.19384 2.76935,-15.97775 -0.42439,-5.39158 -5.3624,-29.89375 -7.63421,-37.88053 -2.74533,-9.65159 -6.9513,-18.04538 -11.21914,-22.38998 -6.02037,-6.12864 -11.48374,-7.63753 -16.08538,-4.44253 -5.10812,3.54664 -9.84958,11.98276 -16.81042,29.90939 -2.32274,5.98188 -4.82608,12.34442 -5.563,14.13899 -3.79786,9.24874 -2.95004,27.7285 1.66321,36.25228 1.87222,3.45926 6.3333,7.57675 10.20423,9.41831 7.12587,3.39005 19.48811,4.93649 26.52029,3.31752 z"
     id="right_heel_layer1"
     inkscape:label="" />
  <path
     inkscape:connector-curvature="0"
     style="fill:#6cc7da"
     d="m 229.54901,129.38445 c 1.38983,-0.40352 4.92539,-1.86116 7.85678,-3.23916 5.83401,-2.74246 9.73721,-3.72443 12.94739,-3.25729 1.14658,0.16685 4.64312,1.11726 7.77008,2.11201 7.25731,2.30873 12.08677,3.14607 16.64496,2.88596 4.79537,-0.27365 7.4858,-1.70295 9.57463,-5.08655 1.54587,-2.50408 1.62026,-2.89883 1.57889,-8.37978 -0.0797,-10.56032 -2.90364,-14.782215 -14.14566,-21.148189 -8.15029,-4.61523 -11.67256,-7.300098 -19.3382,-14.740632 -16.33684,-15.857094 -23.68232,-20.67201 -34.08638,-22.34342 -4.26261,-0.684793 -8.45792,0.06321 -13.51937,2.410312 -2.09219,0.970213 -6.83737,2.573791 -10.54486,3.563504 -3.70749,0.989721 -7.86948,2.366148 -9.24887,3.058733 -3.48135,1.747978 -6.11448,5.075567 -8.08743,10.220398 -5.55023,14.473244 -3.91351,25.688764 5.01941,34.395384 3.30792,3.22414 6.53563,5.12255 14.49963,8.52818 3.12349,1.33568 8.27277,3.80901 11.44283,5.49628 10.7732,5.73404 16.16886,7.11169 21.63617,5.52426 z"
     id="right_mtb_layer1"
     inkscape:label="" />
  <path
     inkscape:connector-curvature="0"
     style="fill:#6cc7da"
     d="m 279.69732,75.682659 c 1.96979,-0.737968 2.71669,-2.092955 2.73567,-4.96294 0.0211,-3.208627 -1.13064,-6.094242 -3.35541,-8.40589 -2.07341,-2.154367 -4.4344,-2.686561 -7.0475,-1.58859 -1.52685,0.641548 -2.06584,1.262154 -2.51783,2.899016 -0.76622,2.774913 -0.72889,4.21748 0.16342,6.314688 1.60491,3.772044 7.01226,6.871164 10.02165,5.743716 z"
     id="right_toe_pinkie_layer1"
     inkscape:label="" />
  <path
     inkscape:connector-curvature="0"
     style="fill:#6cc7da"
     d="m 260.00855,53.937952 c 1.86925,-1.040222 2.43343,-2.219418 2.43343,-5.08617 0,-3.498507 -2.03874,-7.801365 -4.76849,-10.064121 -2.56388,-2.125266 -5.28526,-2.204722 -7.62756,-0.222706 -1.52839,1.293293 -1.66378,1.68219 -1.66378,4.779035 0,4.689127 1.6042,7.785703 4.86686,9.394484 3.14412,1.550333 5.40737,1.951943 6.75954,1.199478 z"
     id="right_toe_ring_layer1"
     inkscape:label="" />
  <path
     inkscape:connector-curvature="0"
     style="fill:#6cc7da"
     d="m 183.48437,43.584265 c 3.30698,-1.718118 5.19882,-4.964389 6.29454,-10.801023 2.10778,-11.227603 -0.96954,-19.799468 -7.79213,-21.704956 -2.75167,-0.768516 -4.13848,-0.71092 -6.46995,0.26871 -2.70071,1.134787 -3.80424,2.231088 -5.36868,5.333526 -3.29749,6.539263 -4.51724,17.272439 -2.43023,21.38468 1.34264,2.645501 2.47934,3.666597 5.65374,5.078684 4.03586,1.795314 7.23651,1.934688 10.11271,0.440379 z"
     id="right_toe_thumb_layer1"
     inkscape:label="" />
  <path
     inkscape:connector-curvature="0"
     style="fill:#6cc7da"
     d="m 237.02389,38.33064 c 2.98812,-3.004945 3.75787,-10.721207 1.51726,-15.20978 -0.68454,-1.371347 -1.88907,-2.963516 -2.6767,-3.53815 -2.00022,-1.459293 -5.60909,-1.349457 -7.27173,0.221312 -4.32041,4.081669 -3.62587,15.12283 1.19097,18.933092 2.16514,1.712694 5.30838,1.536229 7.2402,-0.406474 z"
     id="right_toe_middle_layer1"
     inkscape:label="" />
  <path
     inkscape:connector-curvature="0"
     style="fill:#6cc7da"
     d="m 212.49448,31.795299 c 2.81387,-1.779078 4.76227,-6.513313 4.95517,-12.040031 0.13487,-3.86415 -0.0161,-4.907421 -0.92052,-6.360186 -1.5527,-2.494166 -3.36215,-3.4881549 -6.94451,-3.8148212 -2.8736,-0.2620362 -3.3032,-0.153747 -4.96346,1.2511522 -5.22379,4.420265 -5.81854,14.392057 -1.15808,19.416448 1.7004,1.833173 2.39807,2.190012 4.66765,2.387326 2.01206,0.174933 3.08544,-0.03165 4.36375,-0.839888 z"
     id="right_toe_index_layer1"
     inkscape:label="" />
  <path
     inkscape:connector-curvature="0"
     style="fill:#76dad9"
     d="m 269.5387,294.42874 c 3.95944,-1.27368 6.45974,-3.2416 8.18002,-6.43825 3.49896,-6.50182 4.13425,-13.86231 2.0665,-23.94262 -3.77433,-18.3998 -10.37279,-29.33721 -19.12947,-31.70841 -6.11697,-1.65639 -10.06278,2.68234 -16.6081,18.26193 -1.25655,2.99095 -2.98168,6.83072 -3.83359,8.53285 -2.70766,5.40983 -3.92441,15.92537 -2.58053,22.30144 0.84846,4.0255 2.23024,6.52527 4.85656,8.78596 5.2049,4.48028 19.35679,6.68145 27.04861,4.2071 z"
     id="right_heel_layer2"
     inkscape:label="" />
  <path
     inkscape:connector-curvature="0"
     style="fill:#76dad9"
     d="m 276.23142,120.71825 c 3.44287,-1.62096 5.13725,-4.64109 5.13725,-9.1569 0,-4.9628 -1.07995,-6.1275 -13.32669,-14.372658 -13.83385,-9.313675 -16.87183,-10.338359 -22.63402,-7.634232 -5.09696,2.391951 -9.44766,8.910702 -9.45806,14.17123 -0.0104,5.22878 3.33312,8.69452 12.32741,12.77829 7.5196,3.4142 24.28506,5.9417 27.95411,4.21427 z"
     id="right_mtb_layer2_left"
     inkscape:label="" />
  <path
     inkscape:connector-curvature="0"
     style="fill:#76dad9"
     d="m 207.93779,114.38401 c 3.66455,-1.11088 6.37633,-4.3514 6.37633,-7.61961 0,-3.73695 1.98234,-5.84465 9.18444,-9.765333 2.82079,-1.535589 5.70376,-3.331385 6.40658,-3.990659 3.61227,-3.388462 5.09875,-10.951553 3.01878,-15.359416 -1.19477,-2.531987 -5.66566,-6.503023 -9.53046,-8.46495 -7.46666,-3.790386 -14.37939,-4.054346 -23.67993,-0.904211 -3.1229,1.057737 -7.38141,2.347107 -9.46333,2.865256 -5.79225,1.441579 -7.6051,2.871916 -9.87844,7.794052 -4.49882,9.740666 -1.84296,20.264 6.43885,25.512781 1.77086,1.12232 5.56511,3.574 8.43168,5.44817 2.86655,1.87416 6.42782,3.77069 7.91392,4.2145 3.0004,0.89604 2.75932,0.88245 4.78158,0.26942 z"
     id="right_mtb_layer2_right"
     inkscape:label="" />
  <path
     inkscape:connector-curvature="0"
     style="fill:#76dad9"
     d="m 183.82559,30.136768 c 1.97776,-1.212787 2.90964,-3.524297 2.90964,-7.217275 0,-5.7068 -2.92342,-8.855471 -7.82591,-8.428891 -2.29534,0.19972 -2.94434,0.531359 -4.43617,2.266877 -2.41913,2.814274 -3.35035,7.012629 -2.12314,9.572038 2.04367,4.262173 7.68275,6.133051 11.47558,3.807251 z"
     id="right_toe_thumb_layer2"
     inkscape:label="" />
  <path
     inkscape:connector-curvature="0"
     style="fill:#91ffe0"
     d="m 264.06426,288.3425 c 4.86594,-0.95607 8.52123,-4.86171 9.69913,-10.36343 0.66852,-3.12251 -0.11182,-13.05337 -1.36131,-17.32454 -2.32498,-7.94751 -12.19321,-11.7524 -19.10334,-7.36567 -2.58541,1.64129 -6.62999,6.88284 -8.5837,11.12398 -1.07432,2.33218 -1.3599,3.84066 -1.38984,7.34141 -0.0836,9.779 4.39866,15.29967 13.4956,16.62202 4.20694,0.61153 3.95321,0.61271 7.24346,-0.0338 z"
     id="right_heel_layer3"
     inkscape:label="" />
  <path
     inkscape:connector-curvature="0"
     style="fill:#91ffe0"
     d="m 275.71524,114.67433 c 0.98559,-0.99115 1.32732,-1.91965 1.32732,-3.60649 0,-2.90222 -1.56969,-4.43132 -9.25288,-9.01355 -8.31144,-4.956922 -10.90998,-5.333959 -15.42622,-2.23825 -2.4674,1.69131 -3.38346,3.74467 -2.88745,6.47233 0.80558,4.43023 6.01449,7.72425 14.15943,8.95421 7.72074,1.16589 10.48465,1.03588 12.0798,-0.56825 z"
     id="right_mtb_layer3_left"
     inkscape:label="" />
  <path
     style="fill:#91ffe0"
     d="m 205.85856,100.43647 c 1.75444,-1.431698 1.35222,-3.855754 1.44709,-5.856769 -0.006,-1.904982 0.71397,-3.95823 2.48415,-4.888714 2.33583,-1.321474 4.98355,-1.898354 7.49851,-2.775534 0.0726,-2.531963 0.69028,-5.389964 -1.07041,-7.51219 -1.91203,-2.155559 -4.60145,-3.40694 -7.17915,-4.56774 -3.84883,-1.671771 -8.12536,-0.68631 -11.9922,0.37214 -3.61993,1.07536 -7.33128,1.966784 -10.75792,3.589145 -2.1906,0.941427 -2.97596,3.368481 -3.50663,5.502652 -0.74472,2.753796 0.30741,5.650915 2.14097,7.726266 1.75275,2.257693 4.46634,3.389983 6.86965,4.795265 3.55092,1.84217 7.10789,3.761499 10.93016,4.972109 1.19273,0.29076 2.30064,-0.61182 3.13578,-1.35663 z"
     id="right_mtb_layer3_right"
     inkscape:connector-curvature="0" />
  <path
     inkscape:connector-curvature="0"
     style="fill:#91ffe0"
     d="m 278.0144,71.277956 c 2.7544,-3.337526 -0.7777,-9.272748 -4.5026,-7.566016 -2.59494,1.188989 -2.78147,4.471762 -0.3907,6.875991 1.47012,1.478394 3.95365,1.828605 4.8933,0.690025 z"
     id="right_toe_pinkie_layer3"
     inkscape:label="" />
  <path
     inkscape:connector-curvature="0"
     style="fill:#91ffe0"
     d="m 257.76168,48.126373 c 1.43817,-1.598107 1.14499,-4.54302 -0.62172,-6.245178 -1.82277,-1.756153 -2.74717,-1.822882 -4.62915,-0.334174 -1.9711,1.559191 -1.90997,3.906796 0.15585,5.984237 1.80568,1.815864 3.78808,2.047412 5.09502,0.595115 z"
     id="right_toe_ring_layer3"
     inkscape:label="" />
  <path
     inkscape:connector-curvature="0"
     style="fill:#91ffe0"
     d="m 234.72493,31.056642 c 2.45843,-1.192545 2.56486,-7.276297 0.15006,-8.575943 -1.57428,-0.847267 -3.53559,-0.65468 -4.52456,0.44428 -1.42252,1.580706 -1.18696,5.599347 0.43113,7.355117 1.43452,1.556608 2.0752,1.682773 3.94337,0.776546 z"
     id="right_toe_middle_layer3"
     inkscape:label="" />
  <path
     inkscape:connector-curvature="0"
     style="fill:#91ffe0"
     d="m 182.7041,24.946156 c 0.73002,-0.734144 1.32733,-1.968829 1.32733,-2.743759 0,-1.913808 -2.25129,-4.07855 -4.24162,-4.07855 -3.866,0 -5.49797,4.357772 -2.57788,6.883652 1.89465,1.6389 3.82285,1.617362 5.49217,-0.06137 z"
     id="right_toe_thumb_layer3"
     inkscape:label="" />
  <path
     inkscape:connector-curvature="0"
     style="fill:#91ffe0"
     d="m 211.74551,24.062157 c 2.17189,-1.272138 3.37762,-6.664892 2.04852,-9.162323 -0.70873,-1.331726 -3.48925,-2.411914 -5.13759,-1.995876 -3.09005,0.779917 -4.08916,7.09105 -1.59454,10.072426 1.43546,1.715551 2.99224,2.076452 4.68361,1.085773 z"
     id="right_toe_index_layer3"
     inkscape:label="" />
</svg>
